<svg width="24" height="24" viewBox="0 0 24 24" fill="none" xmlns="http://www.w3.org/2000/svg">
<path fill-rule="evenodd" clip-rule="evenodd" d="M2.00256 16C2.00256 9.37258 7.37515 4 14.0026 4C18.4208 4 22.0026 7.58172 22.0026 12C22.0026 16.4183 18.4208 20 14.0026 20H4.00256C2.89799 20 2.00256 19.1046 2.00256 18V16ZM14.0026 18H4.00256V16C4.00256 15.6625 4.01928 15.3289 4.05194 15H10.4556C12.4131 15 14 13.4131 14 11.4556C14 10.1347 13.2655 8.9234 12.0942 8.31275L9.6063 7.01569C10.9331 6.36521 12.4252 6 14.0026 6C17.3163 6 20.0026 8.68629 20.0026 12C20.0026 15.3137 17.3163 18 14.0026 18ZM4.46036 13H10.4556C11.3086 13 12 12.3086 12 11.4556C12 10.8801 11.6799 10.3523 11.1696 10.0862L7.66889 8.2611C6.1807 9.48051 5.05061 11.1207 4.46036 13Z" fill="#fff"/>
</svg>
